<svg xmlns="http://www.w3.org/2000/svg" viewBox="0 0 1440 520" role="img" aria-labelledby="title desc">
  <title id="title">Dossiya Dakou — physics-grounded mathematical engineering</title>
  <desc id="desc">Professional research identity connecting physical infrastructure, causal mechanisms, mathematical state space, and engineering decisions.</desc>
  <defs>
    <linearGradient id="accent" x1="0" y1="0" x2="1" y2="0">
      <stop offset="0" stop-color="#9a6700"/>
      <stop offset="1" stop-color="#0969da"/>
    </linearGradient>
    <marker id="arrow" viewBox="0 0 10 10" refX="8.3" refY="5" markerWidth="7" markerHeight="7" orient="auto-start-reverse">
      <path d="M 0 0 L 10 5 L 0 10 z" fill="#57606a"/>
    </marker>
  </defs>
  <rect width="1440" height="520" rx="28" fill="#ffffff"/>
  <g opacity="0.34" stroke="#d8dee4" stroke-width="1">
    <path d="M70 86H1370M70 170H1370M70 254H1370M70 338H1370M70 422H1370"/>
    <path d="M120 50V470M360 50V470M600 50V470M840 50V470M1080 50V470M1320 50V470"/>
  </g>
  <g font-family="-apple-system,BlinkMacSystemFont,'Segoe UI',Inter,Arial,sans-serif">
    <text x="82" y="112" fill="#57606a" font-size="18" font-weight="600" letter-spacing="3">RESEARCH PROFILE</text>
    <text x="82" y="174" fill="#161b22" font-size="52" font-weight="760" letter-spacing="0.5">Dossiya Dakou</text>
    <text x="82" y="220" fill="#161b22" font-size="24" font-weight="560">Physics-grounded mathematical engineering</text>
    <text x="82" y="258" fill="#57606a" font-size="19">Sustainable infrastructure · interdependent systems · computational research</text>
    <g transform="translate(82 318)">
      <rect width="510" height="92" rx="16" fill="#f6f8fa" stroke="#d0d7de"/>
      <text x="24" y="34" fill="#57606a" font-size="15" font-weight="700" letter-spacing="1.4">METHOD</text>
      <text x="24" y="64" fill="#161b22" font-size="18">Reality → Causality → Mathematics → Decision</text>
    </g>
    <text x="82" y="452" fill="#57606a" font-size="15">Power + Transportation · resilience · viability · optimization</text>
  </g>
  <g transform="translate(720 65)" font-family="-apple-system,BlinkMacSystemFont,'Segoe UI',Inter,Arial,sans-serif">
    <text x="0" y="18" fill="#57606a" font-size="14" font-weight="700" letter-spacing="1.8">PHYSICAL REALITY</text>
    <g transform="translate(0 42)" stroke="#161b22" stroke-width="2.2" fill="#ffffff">
      <circle cx="34" cy="34" r="9"/><circle cx="110" cy="20" r="9"/><circle cx="158" cy="70" r="9"/>
      <path d="M43 31L101 23M116 27L152 63M42 40L151 66"/>
      <path d="M215 76H365" stroke="#57606a" stroke-width="1.6" marker-start="url(#arrow)" marker-end="url(#arrow)"/>
      <circle cx="430" cy="35" r="9"/><circle cx="505" cy="58" r="9"/><circle cx="575" cy="30" r="9"/>
      <path d="M439 38L496 55M514 54L566 33M438 38L568 32"/>
    </g>
    <text x="0" y="140" fill="#57606a" font-size="14">Power system</text>
    <text x="430" y="140" fill="#57606a" font-size="14">Transportation system</text>
    <path d="M298 166V212" stroke="#9a6700" stroke-width="3" marker-end="url(#arrow)"/>
    <rect x="138" y="220" width="320" height="78" rx="14" fill="#f6f8fa" stroke="#9a6700" stroke-width="1.6"/>
    <text x="160" y="246" fill="#9a6700" font-size="13" font-weight="800" letter-spacing="1.2">CAUSAL INTERFACE</text>
    <text x="160" y="274" fill="#161b22" font-size="19" font-family="Georgia,'Times New Roman',serif">
      <tspan>I</tspan><tspan baseline-shift="sub" font-size="13">ij</tspan><tspan baseline-shift="super" font-size="13">αβ</tspan>
      <tspan> = (E</tspan><tspan baseline-shift="sub" font-size="13">i</tspan><tspan>, E</tspan><tspan baseline-shift="sub" font-size="13">j</tspan>
      <tspan>, M</tspan><tspan baseline-shift="sub" font-size="13">ij</tspan><tspan>, w</tspan><tspan baseline-shift="sub" font-size="13">ij</tspan>
      <tspan>, δ</tspan><tspan baseline-shift="sub" font-size="13">ij</tspan><tspan>, τ</tspan><tspan baseline-shift="sub" font-size="13">ij</tspan><tspan>, …)</tspan>
    </text>
    <path d="M298 306V344" stroke="#0969da" stroke-width="3" marker-end="url(#arrow)"/>
    <g transform="translate(115 352)">
      <path d="M20 58 C95 4 190 2 286 44 C345 70 386 69 442 34" fill="none" stroke="#d0d7de" stroke-width="1.4"/>
      <path d="M28 78 C92 30 190 24 278 58 C340 82 395 80 458 48" fill="none" stroke="#d0d7de" stroke-width="1.4"/>
      <path d="M55 72 C125 28 225 24 340 60" fill="none" stroke="url(#accent)" stroke-width="3"/>
      <circle cx="218" cy="39" r="6" fill="#0969da"/>
      <path d="M218 39L288 16" stroke="#0969da" stroke-width="2.2" marker-end="url(#arrow)"/>
      <text x="302" y="19" fill="#0969da" font-size="16" font-family="Georgia,'Times New Roman',serif"><tspan>ρ</tspan><tspan baseline-shift="sub" font-size="11">g</tspan></text>
      <text x="28" y="116" fill="#57606a" font-size="14">state space · viability boundary · intervention</text>
    </g>
  </g>
</svg>