<svg xmlns="http://www.w3.org/2000/svg" width="1920" height="760" viewBox="0 0 1920 760" role="img" aria-labelledby="title desc"><title id="title">Research Operating System</title><desc id="desc">Seven-stage mathematical systems-engineering architecture from multilayer structure through sustainable transformation pathways.</desc><metadata>Conceptual architecture; not empirical validation. SYSTEMS × MATHEMATICS × DATA × HUMAN &amp; PLANETARY WELL-BEING.</metadata><style>:root{--bg:#FFFFFF;--ink:#111318;}@media(prefers-color-scheme:dark){:root{--bg:#FFFFFF;--ink:#111318;color-scheme:light;}}text{font-family:'DejaVu Sans', Arial, Helvetica, sans-serif;}</style><rect width="100%" height="100%" fill="#FFFFFF"/><text x="960" y="48" text-anchor="middle" font-family="'DejaVu Sans', Arial, Helvetica, sans-serif" font-size="44" font-weight="700" font-style="" fill="#111318">Research Operating System</text><text x="960" y="78" text-anchor="middle" font-family="'DejaVu Sans', Arial, Helvetica, sans-serif" font-size="18" font-weight="400" font-style="italic" fill="#5F6670">Structure · mechanisms · dynamics · control · viability · transformation</text><rect x="70" y="105" width="1780" height="110" rx="12" fill="#F7F7F5" stroke="#D9DDE2" stroke-width="1.2"/><text x="350" y="150" text-anchor="middle" font-family="'DejaVu Sans', Arial, Helvetica, sans-serif" font-size="18" font-weight="400" font-style="" fill="#111318">I_ij^(αβ) = (E_i^α,E_j^β,M_ij,w_ij,δ_ij,τ_ij,a_ij,m,H_t)</text><text x="960" y="150" text-anchor="middle" font-family="'DejaVu Sans', Arial, Helvetica, sans-serif" font-size="21" font-weight="400" font-style="" fill="#111318">dY/dt = F_G(Y,u,η;θ)</text><text x="1540" y="150" text-anchor="middle" font-family="'DejaVu Sans', Arial, Helvetica, sans-serif" font-size="19" font-weight="400" font-style="" fill="#111318">rho_g(Y) = d_g(Y, boundary V_sus)</text><text x="350" y="188" text-anchor="middle" font-family="'DejaVu Sans', Arial, Helvetica, sans-serif" font-size="12" font-weight="400" font-style="" fill="#5F6670">interdependency semantics</text><text x="960" y="188" text-anchor="middle" font-family="'DejaVu Sans', Arial, Helvetica, sans-serif" font-size="12" font-weight="400" font-style="" fill="#5F6670">coupled hybrid dynamics</text><text x="1540" y="188" text-anchor="middle" font-family="'DejaVu Sans', Arial, Helvetica, sans-serif" font-size="12" font-weight="400" font-style="" fill="#5F6670">geometric viability margin</text><text x="38" y="265" text-anchor="start" font-family="'DejaVu Sans', Arial, Helvetica, sans-serif" font-size="28" font-weight="700" font-style="" fill="#B58A37">1</text><text x="76" y="258" text-anchor="start" font-family="'DejaVu Sans', Arial, Helvetica, sans-serif" font-size="18" font-weight="700" font-style="" fill="#111318">Multilayer</text><text x="76" y="280" text-anchor="start" font-family="'DejaVu Sans', Arial, Helvetica, sans-serif" font-size="18" font-weight="700" font-style="" fill="#111318">Structure</text><line x1="262" y1="380" x2="290" y2="380" stroke="#D9DDE2" stroke-width="1.2"/><path d="M 281 375 L 290 380 L 281 385" fill="none" stroke="#D9DDE2" stroke-width="1.2"/><polygon points="40.0,316.0 233.0,310.0 265.0,331.0 64.0,338.0" fill="#F7F7F5" stroke="#D9DDE2" stroke-width="1"/><polyline points="58.0,334.0 104.2,328.6 150.5,336.7 196.8,329.5 243.0,334.9" fill="none" stroke="#111318" stroke-width="1.5"/><circle cx="58.0" cy="334.0" r="4.2" fill="#111318" stroke="none" stroke-width="1"/><circle cx="104.25" cy="328.6" r="4.2" fill="#111318" stroke="none" stroke-width="1"/><circle cx="150.5" cy="336.70000000000005" r="4.2" fill="#111318" stroke="none" stroke-width="1"/><circle cx="196.75" cy="329.5" r="4.2" fill="#111318" stroke="none" stroke-width="1"/><circle cx="243.0" cy="334.9" r="4.2" fill="#111318" stroke="none" stroke-width="1"/><polygon points="40.0,360.0 233.0,354.0 265.0,375.0 64.0,382.0" fill="#F7F7F5" stroke="#D9DDE2" stroke-width="1"/><polyline points="58.0,378.0 104.2,372.6 150.5,380.7 196.8,373.5 243.0,378.9" fill="none" stroke="#111318" stroke-width="1.5"/><circle cx="58.0" cy="378.0" r="4.2" fill="#111318" stroke="none" stroke-width="1"/><circle cx="104.25" cy="372.6" r="4.2" fill="#111318" stroke="none" stroke-width="1"/><circle cx="150.5" cy="380.7" r="4.2" fill="#111318" stroke="none" stroke-width="1"/><circle cx="196.75" cy="373.5" r="4.2" fill="#111318" stroke="none" stroke-width="1"/><circle cx="243.0" cy="378.9" r="4.2" fill="#111318" stroke="none" stroke-width="1"/><polygon points="40.0,404.0 233.0,398.0 265.0,419.0 64.0,426.0" fill="#F7F7F5" stroke="#D9DDE2" stroke-width="1"/><polyline points="58.0,422.0 104.2,416.6 150.5,424.7 196.8,417.5 243.0,422.9" fill="none" stroke="#111318" stroke-width="1.5"/><circle cx="58.0" cy="422.0" r="4.2" fill="#111318" stroke="none" stroke-width="1"/><circle cx="104.25" cy="416.6" r="4.2" fill="#111318" stroke="none" stroke-width="1"/><circle cx="150.5" cy="424.7" r="4.2" fill="#111318" stroke="none" stroke-width="1"/><circle cx="196.75" cy="417.5" r="4.2" fill="#111318" stroke="none" stroke-width="1"/><circle cx="243.0" cy="422.9" r="4.2" fill="#111318" stroke="none" stroke-width="1"/><polygon points="40.0,448.0 233.0,442.0 265.0,463.0 64.0,470.0" fill="#F7F7F5" stroke="#D9DDE2" stroke-width="1"/><polyline points="58.0,466.0 104.2,460.6 150.5,468.7 196.8,461.5 243.0,466.9" fill="none" stroke="#111318" stroke-width="1.5"/><circle cx="58.0" cy="466.0" r="4.2" fill="#111318" stroke="none" stroke-width="1"/><circle cx="104.25" cy="460.6" r="4.2" fill="#111318" stroke="none" stroke-width="1"/><circle cx="150.5" cy="468.7" r="4.2" fill="#111318" stroke="none" stroke-width="1"/><circle cx="196.75" cy="461.5" r="4.2" fill="#111318" stroke="none" stroke-width="1"/><circle cx="243.0" cy="466.9" r="4.2" fill="#111318" stroke="none" stroke-width="1"/><line x1="58.0" y1="326" x2="58.0" y2="474" stroke="#B58A37" stroke-width="1.0" stroke-dasharray="5 5"/><line x1="104.25" y1="326" x2="104.25" y2="474" stroke="#B58A37" stroke-width="1.0" stroke-dasharray="5 5"/><line x1="150.5" y1="326" x2="150.5" y2="474" stroke="#B58A37" stroke-width="1.0" stroke-dasharray="5 5"/><line x1="196.75" y1="326" x2="196.75" y2="474" stroke="#B58A37" stroke-width="1.0" stroke-dasharray="5 5"/><line x1="243.0" y1="326" x2="243.0" y2="474" stroke="#B58A37" stroke-width="1.0" stroke-dasharray="5 5"/><text x="301" y="265" text-anchor="start" font-family="'DejaVu Sans', Arial, Helvetica, sans-serif" font-size="28" font-weight="700" font-style="" fill="#B58A37">2</text><text x="339" y="258" text-anchor="start" font-family="'DejaVu Sans', Arial, Helvetica, sans-serif" font-size="18" font-weight="700" font-style="" fill="#111318">Causal</text><text x="339" y="280" text-anchor="start" font-family="'DejaVu Sans', Arial, Helvetica, sans-serif" font-size="18" font-weight="700" font-style="" fill="#111318">Mechanisms</text><line x1="525" y1="380" x2="553" y2="380" stroke="#D9DDE2" stroke-width="1.2"/><path d="M 544 375 L 553 380 L 544 385" fill="none" stroke="#D9DDE2" stroke-width="1.2"/><circle cx="363" cy="390" r="16" fill="none" stroke="#111318" stroke-width="1.2"/><circle cx="431" cy="340" r="16" fill="none" stroke="#111318" stroke-width="1.2"/><circle cx="431" cy="440" r="16" fill="none" stroke="#111318" stroke-width="1.2"/><circle cx="499" cy="390" r="16" fill="none" stroke="#111318" stroke-width="1.2"/><line x1="363" y1="390" x2="431" y2="340" stroke="#111318" stroke-width="1"/><path d="M 422 335 L 431 340 L 422 345" fill="none" stroke="#111318" stroke-width="1"/><line x1="363" y1="390" x2="431" y2="440" stroke="#111318" stroke-width="1"/><path d="M 422 435 L 431 440 L 422 445" fill="none" stroke="#111318" stroke-width="1"/><line x1="431" y1="340" x2="499" y2="390" stroke="#111318" stroke-width="1"/><path d="M 490 385 L 499 390 L 490 395" fill="none" stroke="#111318" stroke-width="1"/><line x1="431" y1="440" x2="499" y2="390" stroke="#111318" stroke-width="1"/><path d="M 490 385 L 499 390 L 490 395" fill="none" stroke="#111318" stroke-width="1"/><text x="564" y="265" text-anchor="start" font-family="'DejaVu Sans', Arial, Helvetica, sans-serif" font-size="28" font-weight="700" font-style="" fill="#B58A37">3</text><text x="602" y="258" text-anchor="start" font-family="'DejaVu Sans', Arial, Helvetica, sans-serif" font-size="18" font-weight="700" font-style="" fill="#111318">Hybrid Multiscale</text><text x="602" y="280" text-anchor="start" font-family="'DejaVu Sans', Arial, Helvetica, sans-serif" font-size="18" font-weight="700" font-style="" fill="#111318">Dynamics</text><line x1="788" y1="380" x2="816" y2="380" stroke="#D9DDE2" stroke-width="1.2"/><path d="M 807 375 L 816 380 L 807 385" fill="none" stroke="#D9DDE2" stroke-width="1.2"/><path d="M 594.0 355.0 L 598.0 357.6 L 602.0 360.2 L 606.0 362.8 L 610.0 365.2 L 614.0 367.4 L 618.0 369.5 L 622.0 371.4 L 626.0 373.0 L 630.0 374.4 L 634.0 375.5 L 638.0 376.3 L 642.0 376.8 L 646.0 377.0 L 650.0 376.9 L 654.0 376.4 L 658.0 375.7 L 662.0 374.6 L 666.0 373.3 L 670.0 371.7 L 674.0 369.9 L 678.0 367.8 L 682.0 365.6 L 686.0 363.2 L 690.0 360.7 L 694.0 358.1 L 698.0 355.5 L 702.0 352.8 L 706.0 350.2 L 710.0 347.7 L 714.0 345.3 L 718.0 343.0 L 722.0 340.9 L 726.0 338.9 L 730.0 337.3 L 734.0 335.8 L 738.0 334.7 L 742.0 333.8 L 746.0 333.3 L 750.0 333.0 L 754.0 333.1 L 758.0 333.5 L 762.0 334.2 L 766.0 335.2 L 770.0 336.4 L 774.0 338.0 L 778.0 339.8 L 782.0 341.8" fill="none" stroke="#111318" stroke-width="1.5"/><path d="M 594.0 418.5 L 598.0 419.8 L 602.0 420.8 L 606.0 421.5 L 610.0 421.9 L 614.0 422.0 L 618.0 421.8 L 622.0 421.2 L 626.0 420.4 L 630.0 419.2 L 634.0 417.8 L 638.0 416.1 L 642.0 414.2 L 646.0 412.1 L 650.0 409.8 L 654.0 407.4 L 658.0 404.8 L 662.0 402.2 L 666.0 399.6 L 670.0 397.0 L 674.0 394.4 L 678.0 391.9 L 682.0 389.5 L 686.0 387.2 L 690.0 385.2 L 694.0 383.4 L 698.0 381.7 L 702.0 380.4 L 706.0 379.4 L 710.0 378.6 L 714.0 378.1 L 718.0 378.0 L 722.0 378.2 L 726.0 378.7 L 730.0 379.5 L 734.0 380.6 L 738.0 381.9 L 742.0 383.6 L 746.0 385.4 L 750.0 387.5 L 754.0 389.8 L 758.0 392.2 L 762.0 394.7 L 766.0 397.3 L 770.0 399.9 L 774.0 402.6 L 778.0 405.2 L 782.0 407.7" fill="none" stroke="#5F6670" stroke-width="1.5"/><path d="M 594.0 465.0 L 598.0 463.8 L 602.0 462.3 L 606.0 460.5 L 610.0 458.5 L 614.0 456.3 L 618.0 454.0 L 622.0 451.5 L 626.0 449.0 L 630.0 446.4 L 634.0 443.7 L 638.0 441.1 L 642.0 438.5 L 646.0 436.1 L 650.0 433.7 L 654.0 431.5 L 658.0 429.6 L 662.0 427.8 L 666.0 426.3 L 670.0 425.0 L 674.0 424.1 L 678.0 423.4 L 682.0 423.1 L 686.0 423.0 L 690.0 423.3 L 694.0 423.9 L 698.0 424.8 L 702.0 426.0 L 706.0 427.5 L 710.0 429.2 L 714.0 431.1 L 718.0 433.3 L 722.0 435.6 L 726.0 438.0 L 730.0 440.6 L 734.0 443.2 L 738.0 445.8 L 742.0 448.4 L 746.0 451.0 L 750.0 453.5 L 754.0 455.9 L 758.0 458.1 L 762.0 460.1 L 766.0 461.9 L 770.0 463.5 L 774.0 464.8 L 778.0 465.8 L 782.0 466.5" fill="none" stroke="#D9DDE2" stroke-width="1.5"/><text x="827" y="265" text-anchor="start" font-family="'DejaVu Sans', Arial, Helvetica, sans-serif" font-size="28" font-weight="700" font-style="" fill="#B58A37">4</text><text x="865" y="258" text-anchor="start" font-family="'DejaVu Sans', Arial, Helvetica, sans-serif" font-size="18" font-weight="700" font-style="" fill="#111318">Feedback</text><text x="865" y="280" text-anchor="start" font-family="'DejaVu Sans', Arial, Helvetica, sans-serif" font-size="18" font-weight="700" font-style="" fill="#111318">&amp; Control</text><line x1="1051" y1="380" x2="1079" y2="380" stroke="#D9DDE2" stroke-width="1.2"/><path d="M 1070 375 L 1079 380 L 1070 385" fill="none" stroke="#D9DDE2" stroke-width="1.2"/><rect x="889" y="350" width="112" height="70" rx="0" fill="none" stroke="#111318" stroke-width="1"/><text x="945" y="390" text-anchor="middle" font-family="'DejaVu Sans', Arial, Helvetica, sans-serif" font-size="13" font-weight="400" font-style="" fill="#111318">System G</text><line x1="847" y1="385" x2="889" y2="385" stroke="#111318" stroke-width="2"/><path d="M 880 380 L 889 385 L 880 390" fill="none" stroke="#111318" stroke-width="2"/><line x1="1001" y1="385" x2="1047" y2="385" stroke="#111318" stroke-width="2"/><path d="M 1038 380 L 1047 385 L 1038 390" fill="none" stroke="#111318" stroke-width="2"/><line x1="1023" y1="385" x2="1023" y2="470" stroke="#B58A37" stroke-width="1.2"/><line x1="1023" y1="470" x2="867" y2="470" stroke="#B58A37" stroke-width="1.2"/><line x1="867" y1="470" x2="867" y2="414" stroke="#B58A37" stroke-width="1.2"/><text x="1090" y="265" text-anchor="start" font-family="'DejaVu Sans', Arial, Helvetica, sans-serif" font-size="28" font-weight="700" font-style="" fill="#B58A37">5</text><text x="1128" y="258" text-anchor="start" font-family="'DejaVu Sans', Arial, Helvetica, sans-serif" font-size="18" font-weight="700" font-style="" fill="#111318">Viability</text><line x1="1314" y1="380" x2="1342" y2="380" stroke="#D9DDE2" stroke-width="1.2"/><path d="M 1333 375 L 1342 380 L 1333 385" fill="none" stroke="#D9DDE2" stroke-width="1.2"/><path d="M 1222.3 408.7 L 1222.7 407.4 L 1223.1 406.1 L 1223.4 404.7 L 1223.8 403.4 L 1224.1 402.0 L 1224.3 400.6 L 1224.5 399.2 L 1224.7 397.7 L 1224.9 396.3 L 1225.0 394.8 L 1225.0 393.3 L 1225.0 391.8 L 1224.9 390.3 L 1224.8 388.9 L 1224.7 387.4 L 1224.4 385.9 L 1224.2 384.4 L 1223.8 383.0 L 1223.4 381.6 L 1223.0 380.2 L 1222.5 378.8 L 1221.9 377.5 L 1221.3 376.1 L 1220.6 374.9 L 1219.9 373.6 L 1219.2 372.5 L 1218.4 371.3 L 1217.5 370.2 L 1216.6 369.2 L 1215.7 368.2 L 1214.7 367.2 L 1213.7 366.4 L 1212.7 365.5 L 1211.7 364.7 L 1210.6 364.0 L 1209.5 363.3 L 1208.4 362.7 L 1207.3 362.1 L 1206.1 361.6 L 1205.0 361.1 L 1203.9 360.7 L 1202.7 360.3 L 1201.5 360.0 L 1200.4 359.7 L 1199.2 359.4 L 1198.1 359.1 L 1196.9 358.9 L 1195.8 358.8 L 1194.7 358.6 L 1193.5 358.5 L 1192.4 358.4 L 1191.3 358.3 L 1190.2 358.2 L 1189.1 358.1 L 1188.0 358.1 L 1186.9 358.1 L 1185.8 358.0 L 1184.7 358.0 L 1183.6 358.0 L 1182.5 358.0 L 1181.4 358.0 L 1180.3 358.0 L 1179.2 358.0 L 1178.1 358.1 L 1177.0 358.1 L 1175.9 358.1 L 1174.8 358.2 L 1173.7 358.3 L 1172.6 358.4 L 1171.5 358.5 L 1170.3 358.6 L 1169.2 358.8 L 1168.1 358.9 L 1166.9 359.1 L 1165.8 359.4 L 1164.6 359.7 L 1163.5 360.0 L 1162.3 360.3 L 1161.1 360.7 L 1160.0 361.1 L 1158.9 361.6 L 1157.7 362.1 L 1156.6 362.7 L 1155.5 363.3 L 1154.4 364.0 L 1153.3 364.7 L 1152.3 365.5 L 1151.3 366.4 L 1150.3 367.2 L 1149.3 368.2 L 1148.4 369.2 L 1147.5 370.2 L 1146.6 371.3 L 1145.8 372.5 L 1145.1 373.6 L 1144.4 374.9 L 1143.7 376.1 L 1143.1 377.5 L 1142.5 378.8 L 1142.0 380.2 L 1141.6 381.6 L 1141.2 383.0 L 1140.8 384.4 L 1140.6 385.9 L 1140.3 387.4 L 1140.2 388.9 L 1140.1 390.3 L 1140.0 391.8 L 1140.0 393.3 L 1140.0 394.8 L 1140.1 396.3 L 1140.3 397.7 L 1140.5 399.2 L 1140.7 400.6 L 1140.9 402.0 L 1141.2 403.4 L 1141.6 404.7 L 1141.9 406.1 L 1142.3 407.4 L 1142.7 408.7 L 1143.1 409.9 L 1143.5 411.2 L 1144.0 412.4 L 1144.4 413.5 L 1144.9 414.7 L 1145.3 415.8 L 1145.8 417.0 L 1146.2 418.1 L 1146.7 419.1 L 1147.1 420.2 L 1147.6 421.3 L 1148.0 422.3 L 1148.4 423.4 L 1148.8 424.4 L 1149.2 425.5 L 1149.6 426.5 L 1150.0 427.6 L 1150.3 428.7 L 1150.7 429.7 L 1151.0 430.8 L 1151.4 431.9 L 1151.7 433.1 L 1152.0 434.2 L 1152.3 435.4 L 1152.7 436.6 L 1153.0 437.8 L 1153.4 439.0 L 1153.7 440.3 L 1154.1 441.5 L 1154.5 442.8 L 1154.9 444.1 L 1155.3 445.4 L 1155.8 446.8 L 1156.3 448.1 L 1156.8 449.5 L 1157.4 450.8 L 1158.0 452.2 L 1158.6 453.5 L 1159.3 454.9 L 1160.0 456.2 L 1160.8 457.5 L 1161.6 458.8 L 1162.4 460.0 L 1163.3 461.3 L 1164.2 462.4 L 1165.2 463.6 L 1166.2 464.6 L 1167.3 465.7 L 1168.4 466.6 L 1169.6 467.5 L 1170.8 468.3 L 1172.0 469.1 L 1173.2 469.7 L 1174.5 470.3 L 1175.8 470.8 L 1177.1 471.3 L 1178.4 471.6 L 1179.8 471.8 L 1181.1 472.0 L 1182.5 472.0 L 1183.9 472.0 L 1185.2 471.8 L 1186.6 471.6 L 1187.9 471.3 L 1189.2 470.8 L 1190.5 470.3 L 1191.8 469.7 L 1193.0 469.1 L 1194.2 468.3 L 1195.4 467.5 L 1196.6 466.6 L 1197.7 465.7 L 1198.8 464.6 L 1199.8 463.6 L 1200.8 462.4 L 1201.7 461.3 L 1202.6 460.0 L 1203.4 458.8 L 1204.2 457.5 L 1205.0 456.2 L 1205.7 454.9 L 1206.4 453.5 L 1207.0 452.2 L 1207.6 450.8 L 1208.2 449.5 L 1208.7 448.1 L 1209.2 446.8 L 1209.7 445.4 L 1210.1 444.1 L 1210.5 442.8 L 1210.9 441.5 L 1211.3 440.3 L 1211.6 439.0 L 1212.0 437.8 L 1212.3 436.6 L 1212.7 435.4 L 1213.0 434.2 L 1213.3 433.1 L 1213.6 431.9 L 1214.0 430.8 L 1214.3 429.7 L 1214.7 428.7 L 1215.0 427.6 L 1215.4 426.5 L 1215.8 425.5 L 1216.2 424.4 L 1216.6 423.4 L 1217.0 422.3 L 1217.4 421.3 L 1217.9 420.2 L 1218.3 419.1 L 1218.8 418.1 L 1219.2 417.0 L 1219.7 415.8 L 1220.1 414.7 L 1220.6 413.5 L 1221.0 412.4 L 1221.5 411.2 L 1221.9 409.9 L 1222.3 408.7" fill="#F2EAD8" stroke="#111318" stroke-width="1.8"/><line x1="1130" y1="482" x2="1299" y2="482" stroke="#111318" stroke-width="1.4"/><path d="M 1290 477 L 1299 482 L 1290 487" fill="none" stroke="#111318" stroke-width="1.4"/><line x1="1140" y1="490" x2="1140" y2="342" stroke="#111318" stroke-width="1.4"/><path d="M 1131 337 L 1140 342 L 1131 347" fill="none" stroke="#111318" stroke-width="1.4"/><circle cx="1204.25" cy="426.9" r="5" fill="#111318" stroke="none" stroke-width="1"/><circle cx="1255.5" cy="387.8" r="5" fill="#B58A37" stroke="none" stroke-width="1"/><line x1="1204.25" y1="426.9" x2="1255.5" y2="387.8" stroke="#B58A37" stroke-width="1.8" stroke-dasharray="6 5"/><text x="1353" y="265" text-anchor="start" font-family="'DejaVu Sans', Arial, Helvetica, sans-serif" font-size="28" font-weight="700" font-style="" fill="#B58A37">6</text><text x="1391" y="258" text-anchor="start" font-family="'DejaVu Sans', Arial, Helvetica, sans-serif" font-size="18" font-weight="700" font-style="" fill="#111318">Resilience to</text><text x="1391" y="280" text-anchor="start" font-family="'DejaVu Sans', Arial, Helvetica, sans-serif" font-size="18" font-weight="700" font-style="" fill="#111318">Sustainability</text><line x1="1577" y1="380" x2="1605" y2="380" stroke="#D9DDE2" stroke-width="1.2"/><path d="M 1596 375 L 1605 380 L 1596 385" fill="none" stroke="#D9DDE2" stroke-width="1.2"/><path d="M 1388.0 390.0 L 1392.0 395.4 L 1396.0 400.8 L 1400.0 406.2 L 1404.0 411.4 L 1408.0 416.5 L 1412.0 421.4 L 1416.0 426.1 L 1420.0 430.6 L 1424.0 434.8 L 1428.0 438.8 L 1432.0 442.4 L 1436.0 445.7 L 1440.0 448.6 L 1444.0 451.2 L 1448.0 453.4 L 1452.0 455.1 L 1456.0 456.5 L 1460.0 457.4 L 1464.0 457.9 L 1468.0 458.0 L 1472.0 457.6 L 1476.0 456.8 L 1480.0 455.6 L 1484.0 453.9 L 1488.0 451.8 L 1492.0 449.4 L 1496.0 446.5 L 1500.0 443.3 L 1504.0 439.8 L 1508.0 435.9 L 1512.0 431.8 L 1516.0 427.4 L 1520.0 422.7 L 1524.0 417.8 L 1528.0 412.8 L 1532.0 407.6 L 1536.0 402.3 L 1540.0 396.9 L 1544.0 391.5 L 1548.0 386.0 L 1552.0 380.6 L 1556.0 375.3 L 1560.0 370.0 L 1564.0 364.9 L 1568.0 359.9 L 1572.0 355.1 L 1576.0 350.6" fill="none" stroke="#5F6670" stroke-width="1.5"/><circle cx="1423" cy="350" r="5" fill="#111318" stroke="none" stroke-width="1"/><circle cx="1543" cy="435" r="5" fill="#B58A37" stroke="none" stroke-width="1"/><line x1="1431" y1="356" x2="1536" y2="430" stroke="#B58A37" stroke-width="1.2" stroke-dasharray="6 5"/><path d="M 1527 425 L 1536 430 L 1527 435" fill="none" stroke="#B58A37" stroke-width="1.2"/><text x="1616" y="265" text-anchor="start" font-family="'DejaVu Sans', Arial, Helvetica, sans-serif" font-size="28" font-weight="700" font-style="" fill="#B58A37">7</text><text x="1654" y="258" text-anchor="start" font-family="'DejaVu Sans', Arial, Helvetica, sans-serif" font-size="18" font-weight="700" font-style="" fill="#111318">Transformation</text><text x="1654" y="280" text-anchor="start" font-family="'DejaVu Sans', Arial, Helvetica, sans-serif" font-size="18" font-weight="700" font-style="" fill="#111318">Pathways</text><path d="M 1646.0 460.0 L 1650.0 457.0 L 1654.0 453.9 L 1658.0 450.8 L 1662.0 448.0 L 1666.0 445.3 L 1670.0 443.0 L 1674.0 441.0 L 1678.0 439.4 L 1682.0 438.3 L 1686.0 437.6 L 1690.0 437.3 L 1694.0 437.5 L 1698.0 438.0 L 1702.0 438.8 L 1706.0 439.9 L 1710.0 441.1 L 1714.0 442.4 L 1718.0 443.7 L 1722.0 445.0 L 1726.0 446.1 L 1730.0 446.9 L 1734.0 447.5 L 1738.0 447.6 L 1742.0 447.3 L 1746.0 446.6 L 1750.0 445.3 L 1754.0 443.6 L 1758.0 441.3 L 1762.0 438.5 L 1766.0 435.3 L 1770.0 431.7 L 1774.0 427.8 L 1778.0 423.6 L 1782.0 419.2 L 1786.0 414.8 L 1790.0 410.3 L 1794.0 405.9 L 1798.0 401.6 L 1802.0 397.6 L 1806.0 393.9 L 1810.0 390.5 L 1814.0 387.6 L 1818.0 385.1 L 1822.0 383.1 L 1826.0 381.5 L 1830.0 380.4 L 1834.0 379.7" fill="none" stroke="#111318" stroke-width="1.7"/><circle cx="1646" cy="460.0" r="4" fill="#B58A37" stroke="none" stroke-width="1"/><circle cx="1726" cy="446.08825733040123" r="4" fill="#B58A37" stroke="none" stroke-width="1"/><circle cx="1806" cy="393.8643962637294" r="4" fill="#B58A37" stroke="none" stroke-width="1"/><text x="150" y="535" text-anchor="middle" font-family="'DejaVu Sans', Arial, Helvetica, sans-serif" font-size="13" font-weight="400" font-style="" fill="#111318">G=(V,E,W,L)</text><text x="413" y="535" text-anchor="middle" font-family="'DejaVu Sans', Arial, Helvetica, sans-serif" font-size="13" font-weight="400" font-style="" fill="#111318">P(Y|do(X))</text><text x="676" y="535" text-anchor="middle" font-family="'DejaVu Sans', Arial, Helvetica, sans-serif" font-size="13" font-weight="400" font-style="" fill="#111318">dY/dt = F_G(Y,u,η;θ)</text><text x="939" y="535" text-anchor="middle" font-family="'DejaVu Sans', Arial, Helvetica, sans-serif" font-size="13" font-weight="400" font-style="" fill="#111318">u=π(Y)</text><text x="1202" y="535" text-anchor="middle" font-family="'DejaVu Sans', Arial, Helvetica, sans-serif" font-size="13" font-weight="400" font-style="" fill="#111318">V_sus ⊂ K</text><text x="1465" y="535" text-anchor="middle" font-family="'DejaVu Sans', Arial, Helvetica, sans-serif" font-size="13" font-weight="400" font-style="" fill="#111318">absorb · adapt · transform</text><text x="1728" y="535" text-anchor="middle" font-family="'DejaVu Sans', Arial, Helvetica, sans-serif" font-size="13" font-weight="400" font-style="" fill="#111318">robust desirable futures</text><text x="589.6" y="650" text-anchor="middle" font-family="'DejaVu Sans', Arial, Helvetica, sans-serif" font-size="12" font-weight="600" font-style="" fill="#111318">EVIDENCE</text><line x1="625.6" y1="645" x2="647.6" y2="645" stroke="#B58A37" stroke-width="1.1"/><path d="M 638.6 640 L 647.6 645 L 638.6 650" fill="none" stroke="#B58A37" stroke-width="1.1"/><text x="691.88" y="650" text-anchor="middle" font-family="'DejaVu Sans', Arial, Helvetica, sans-serif" font-size="12" font-weight="600" font-style="" fill="#111318">DEFINITIONS</text><line x1="736.16" y1="645" x2="758.16" y2="645" stroke="#B58A37" stroke-width="1.1"/><path d="M 749.16 640 L 758.16 645 L 749.16 650" fill="none" stroke="#B58A37" stroke-width="1.1"/><text x="802.4399999999999" y="650" text-anchor="middle" font-family="'DejaVu Sans', Arial, Helvetica, sans-serif" font-size="12" font-weight="600" font-style="" fill="#111318">ASSUMPTIONS</text><line x1="846.7199999999999" y1="645" x2="868.7199999999999" y2="645" stroke="#B58A37" stroke-width="1.1"/><path d="M 859.7199999999999 640 L 868.7199999999999 645 L 859.7199999999999 650" fill="none" stroke="#B58A37" stroke-width="1.1"/><text x="904.7199999999999" y="650" text-anchor="middle" font-family="'DejaVu Sans', Arial, Helvetica, sans-serif" font-size="12" font-weight="600" font-style="" fill="#111318">MODEL</text><line x1="940.7199999999999" y1="645" x2="962.7199999999999" y2="645" stroke="#B58A37" stroke-width="1.1"/><path d="M 953.7199999999999 640 L 962.7199999999999 645 L 953.7199999999999 650" fill="none" stroke="#B58A37" stroke-width="1.1"/><text x="1006.9999999999999" y="650" text-anchor="middle" font-family="'DejaVu Sans', Arial, Helvetica, sans-serif" font-size="12" font-weight="600" font-style="" fill="#111318">COMPUTATION</text><line x1="1051.28" y1="645" x2="1073.28" y2="645" stroke="#B58A37" stroke-width="1.1"/><path d="M 1064.28 640 L 1073.28 645 L 1064.28 650" fill="none" stroke="#B58A37" stroke-width="1.1"/><text x="1121.04" y="650" text-anchor="middle" font-family="'DejaVu Sans', Arial, Helvetica, sans-serif" font-size="12" font-weight="600" font-style="" fill="#111318">VERIFICATION</text><line x1="1168.8" y1="645" x2="1190.8" y2="645" stroke="#B58A37" stroke-width="1.1"/><path d="M 1181.8 640 L 1190.8 645 L 1181.8 650" fill="none" stroke="#B58A37" stroke-width="1.1"/><text x="1231.6" y="650" text-anchor="middle" font-family="'DejaVu Sans', Arial, Helvetica, sans-serif" font-size="12" font-weight="600" font-style="" fill="#111318">VALIDATION</text><line x1="1272.3999999999999" y1="645" x2="1294.3999999999999" y2="645" stroke="#B58A37" stroke-width="1.1"/><path d="M 1285.3999999999999 640 L 1294.3999999999999 645 L 1285.3999999999999 650" fill="none" stroke="#B58A37" stroke-width="1.1"/><text x="1330.3999999999999" y="650" text-anchor="middle" font-family="'DejaVu Sans', Arial, Helvetica, sans-serif" font-size="12" font-weight="600" font-style="" fill="#111318">DECISION</text><line x1="1660" y1="690" x2="260" y2="690" stroke="#B58A37" stroke-width="1.2"/><path d="M 251 685 L 260 690 L 251 695" fill="none" stroke="#B58A37" stroke-width="1.2"/><text x="960" y="716" text-anchor="middle" font-family="'DejaVu Sans', Arial, Helvetica, sans-serif" font-size="12" font-weight="400" font-style="italic" fill="#5F6670">new evidence · learning · model refinement · adaptive decisions</text></svg>
